# xmcd
#
# Track frame offsets: 
#        150
#        12121
#        14096
#        22163
#        38924
#        59033
#        71804
#        88810
#        96926
#        106791
#        119465
#        126552
#        132482
#        139423
#        145271
#        172052
#        178353
#        199714
#        225234
#        254014
#        264804
#        289124
#        299914
#        321897
#        345670
#
# Disc length: 4699 seconds
#
# Revision: 0
# Processed by: cddbd v1.5.2PL0 Copyright (c) Steve Scherf et al.
# Submitted via: ExactAudioCopyFreeDBPlugin 1.0
#
DISCID=9b125919
DTITLE=Helene Fischer - Best of Live - So wie ich bin CD2
DYEAR=2010
DGENRE=Schlager
TTITLE0=Dyki Tantsi (Russisches Medley) (Live 2010)
TTITLE1=Korobuschka (Russisches Medley) (Live 2010)
TTITLE2=Ty Leti, Moja Dusha (Russisches Medley) (Live 2010)
TTITLE3=Kalinka (Russisches Medley) (Live 2010)
TTITLE4=Ich Will Immer Wieder Dieses Fieber Spür'n (Live 2010)
TTITLE5=Earth Song (Live 2010)
TTITLE6=Heal The World (Live 2010)
TTITLE7=Manchmal Kommt Die Liebe Einfach So (Akustisch) (Live 2010)
TTITLE8=Über Sieben Brücken Musst Du Geh'n (Akustisch) (Live 2010)
TTITLE9=Feuer Am Horizont (Akustisch) (Live 2010)
TTITLE10=König Der Herzen (Akustisch) (Live 2010)
TTITLE11=Ewig Ist Manchmal Zu Lang (Akustisch) (Live 2010)
TTITLE12=Mal Ganz Ehrlich (Instrumental) (Akustisch) (Live 2010)
TTITLE13=Und Morgen Früh Küss Ich Dich Wach (Instrumental)  (Live 2010
TTITLE13=)
TTITLE14=Jeden Morgen Wird Die Sonne Neu Gebor'n (Live 2010)
TTITLE15=Meine Welt (Instrumental) (Live 2010)
TTITLE16=Du Hast Mein Herz Berührt (Live 2010)
TTITLE17=Von Hier Bis Unendlich (Live 2010)
TTITLE18=All By Myself (Live 2010)
TTITLE19=Das Karussell In Meinem Bauch (Live 2010)
TTITLE20=Hundert Prozent (Live 2010)
TTITLE21=Mal Ganz Ehrlich (Live 2010)
TTITLE22=Und Morgen Früh Küss Ich Dich Wach (Live 2010)
TTITLE23=Du Lässt Mich Sein, So Wie Ich Bin (Live 2010)
TTITLE24=Du Lässt Mich Sein, So Wie Ich Bin - Reprise (Live 2010)
EXTD=
EXTT0=
EXTT1=
EXTT2=
EXTT3=
EXTT4=
EXTT5=
EXTT6=
EXTT7=
EXTT8=
EXTT9=
EXTT10=
EXTT11=
EXTT12=
EXTT13=
EXTT14=
EXTT15=
EXTT16=
EXTT17=
EXTT18=
EXTT19=
EXTT20=
EXTT21=
EXTT22=
EXTT23=
EXTT24=
PLAYORDER=
